<svg xmlns="http://www.w3.org/2000/svg" width="906" height="418" fill="none" viewBox="0 0 906 418"><circle cx="343.362" cy="192.618" r="192.618" fill="url(#paint0_linear_423_1941)"/><circle cx="192.618" cy="192.618" r="171.681" stroke="#4F44B1" stroke-width="41.873" style="mix-blend-mode:hard-light"/><path fill="#fff" d="M458.957 323.66V281.155H515.741C525.925 281.155 533.563 278.498 538.655 273.185C543.746 267.872 546.292 260.345 546.292 250.604C546.292 240.863 543.746 233.447 538.655 228.355C533.563 223.042 525.925 220.385 515.741 220.385H458.957V187.51H513.085C529.91 187.51 544.853 189.613 557.915 193.819C570.977 197.804 581.271 204.335 588.798 213.412C596.325 222.488 600.088 234.775 600.088 250.272V254.921C600.088 269.311 596.768 281.708 590.126 292.113C583.485 302.297 573.744 310.156 560.904 315.691C548.063 321.004 532.124 323.66 513.085 323.66H458.957ZM412.466 323.66V77.5929H465.598V323.66H412.466ZM458.957 211.751V179.208H506.775C517.18 179.208 524.707 176.551 529.356 171.238C534.006 165.925 536.33 158.841 536.33 149.985C536.33 140.687 534.006 133.381 529.356 128.068C524.707 122.755 517.18 120.098 506.775 120.098H458.957V77.5929H503.455C531.349 77.5929 552.712 83.4595 567.545 95.1929C582.599 106.926 590.126 123.641 590.126 145.336V150.317C590.126 165.371 586.252 177.437 578.504 186.513C570.977 195.59 560.682 202.121 547.621 206.106C534.78 209.869 520.058 211.751 503.455 211.751H458.957ZM641.725 322V79.5853H695.189V322H641.725ZM620.14 118.77V79.5853H695.189V118.77H620.14ZM813.218 327.645C787.316 327.645 767.06 322.332 752.448 311.706C737.837 301.079 730.089 286.136 729.203 266.876H776.358C777.243 272.632 780.675 277.834 786.652 282.483C792.851 286.911 802.038 289.125 814.214 289.125C823.513 289.125 831.15 287.575 837.128 284.476C843.326 281.155 846.426 276.506 846.426 270.528C846.426 265.215 844.101 261.009 839.452 257.91C834.803 254.589 826.501 252.264 814.546 250.936L800.267 249.608C778.35 247.394 761.857 241.306 750.788 231.344C739.94 221.381 734.516 208.652 734.516 193.155C734.516 180.315 737.727 169.578 744.147 160.944C750.567 152.31 759.422 145.779 770.713 141.351C782.225 136.924 795.286 134.71 809.897 134.71C833.364 134.71 852.292 139.912 866.682 150.317C881.072 160.501 888.599 175.334 889.263 194.815H842.109C841.223 188.838 838.124 183.857 832.811 179.872C827.497 175.666 819.638 173.563 809.233 173.563C801.042 173.563 794.511 175.112 789.641 178.212C784.77 181.311 782.335 185.517 782.335 190.83C782.335 195.922 784.438 199.796 788.645 202.453C792.851 205.11 799.714 206.991 809.233 208.098L823.513 209.427C845.872 211.862 863.251 218.061 875.648 228.023C888.046 237.985 894.244 251.379 894.244 268.204C894.244 280.38 890.924 291.006 884.282 300.083C877.641 308.938 868.232 315.801 856.056 320.672C843.88 325.321 829.601 327.645 813.218 327.645Z"/><defs><linearGradient id="paint0_linear_423_1941" x1="439.671" x2="196.805" y1="58.623" y2="288.927" gradientUnits="userSpaceOnUse"><stop stop-color="#FE9849"/><stop offset="1" stop-color="#FE49E1"/></linearGradient></defs></svg>